<mxfile host="app.diagrams.net" modified="2021-08-16T20:13:26.250Z" agent="5.0 (Windows NT 10.0; Win64; x64) AppleWebKit/537.36 (KHTML, like Gecko) Chrome/92.0.4515.131 Safari/537.36" etag="9BGn3J1wxgSBe7J5Le96" version="14.9.6" type="github">
  <diagram id="R2lEEEUBdFMjLlhIrx00" name="Page-1">
    <mxGraphModel dx="2076" dy="1094" grid="1" gridSize="10" guides="1" tooltips="1" connect="1" arrows="1" fold="1" page="1" pageScale="1" pageWidth="850" pageHeight="1100" math="0" shadow="0" extFonts="Permanent Marker^https://fonts.googleapis.com/css?family=Permanent+Marker">
      <root>
        <mxCell id="0" />
        <mxCell id="1" parent="0" />
        <UserObject label="Usuario" lucidchartObjectId="-3R3NJAHTeHD" id="VRWW_0TF_3YnSkMlOSeD-61">
          <mxCell style="html=1;overflow=block;blockSpacing=1;whiteSpace=wrap;;whiteSpace=wrap;fontSize=16.7;fontColor=#000000;align=center;spacing=3.8;strokeOpacity=0;fillOpacity=100;rounded=1;absoluteArcSize=1;arcSize=9;fillColor=#c1e4f7;strokeWidth=2.3;" parent="1" vertex="1">
            <mxGeometry x="440" y="10" width="165" height="105" as="geometry" />
          </mxCell>
        </UserObject>
        <UserObject label="Artículo" lucidchartObjectId="N4R3xxDWyzEW" id="VRWW_0TF_3YnSkMlOSeD-62">
          <mxCell style="html=1;overflow=block;blockSpacing=1;whiteSpace=wrap;;whiteSpace=wrap;fontSize=16.7;fontColor=#000000;align=center;spacing=3.8;strokeOpacity=0;fillOpacity=100;rounded=1;absoluteArcSize=1;arcSize=9;fillColor=#d1bcd2;strokeWidth=2.3;" parent="1" vertex="1">
            <mxGeometry x="867" y="308" width="165" height="120" as="geometry" />
          </mxCell>
        </UserObject>
        <UserObject label="Compró" lucidchartObjectId="h5R3.NiIb5me" id="VRWW_0TF_3YnSkMlOSeD-63">
          <mxCell style="html=1;overflow=block;blockSpacing=1;whiteSpace=wrap;rhombus;whiteSpace=wrap;fontSize=16.7;fontColor=#000000;align=center;spacing=3.8;strokeOpacity=0;fillOpacity=100;rounded=1;absoluteArcSize=1;arcSize=9;fillColor=#ffdf71;strokeWidth=2.3;" parent="1" vertex="1">
            <mxGeometry x="463" y="163" width="120" height="90" as="geometry" />
          </mxCell>
        </UserObject>
        <UserObject label="Nombre de usuario" lucidchartObjectId="r7R3u4n3ihNe" id="VRWW_0TF_3YnSkMlOSeD-64">
          <mxCell style="html=1;overflow=block;blockSpacing=1;whiteSpace=wrap;;whiteSpace=wrap;fontSize=11.7;fontColor=#333333;align=center;spacing=3.8;strokeOpacity=0;fillOpacity=0;rounded=1;absoluteArcSize=1;arcSize=9;fillColor=#ffffff;strokeWidth=2.3;" parent="1" vertex="1">
            <mxGeometry x="320" y="10" width="83" height="45" as="geometry" />
          </mxCell>
        </UserObject>
        <UserObject label="Contraseña" lucidchartObjectId="s7R3zHyiIeQP" id="VRWW_0TF_3YnSkMlOSeD-65">
          <mxCell style="html=1;overflow=block;blockSpacing=1;whiteSpace=wrap;;whiteSpace=wrap;fontSize=11.7;fontColor=#333333;align=center;spacing=3.8;strokeOpacity=0;fillOpacity=0;rounded=1;absoluteArcSize=1;arcSize=9;fillColor=#ffffff;strokeWidth=2.3;" parent="1" vertex="1">
            <mxGeometry x="320" y="66" width="83" height="45" as="geometry" />
          </mxCell>
        </UserObject>
        <UserObject label="Precio" lucidchartObjectId="s7R3FvE~1ca5" id="VRWW_0TF_3YnSkMlOSeD-66">
          <mxCell style="points=[[0.223,0.449,0]];html=1;overflow=block;blockSpacing=1;whiteSpace=wrap;;whiteSpace=wrap;fontSize=11.7;fontColor=#333333;align=center;spacing=3.8;strokeOpacity=0;fillOpacity=0;rounded=1;absoluteArcSize=1;arcSize=9;fillColor=#ffffff;strokeWidth=2.3;" parent="1" vertex="1">
            <mxGeometry x="1115" y="368" width="90" height="22" as="geometry" />
          </mxCell>
        </UserObject>
        <UserObject label="Puntación y comentarios" lucidchartObjectId="s7R3szmb3w4L" id="VRWW_0TF_3YnSkMlOSeD-67">
          <mxCell style="html=1;overflow=block;blockSpacing=1;whiteSpace=wrap;;whiteSpace=wrap;fontSize=11.7;fontColor=#333333;align=center;spacing=3.8;strokeOpacity=0;fillOpacity=0;rounded=1;absoluteArcSize=1;arcSize=9;fillColor=#ffffff;strokeWidth=2.3;" parent="1" vertex="1">
            <mxGeometry x="1092" y="419" width="150" height="17" as="geometry" />
          </mxCell>
        </UserObject>
        <UserObject label="Moneda" lucidchartObjectId="s7R3QN1PlliB" id="VRWW_0TF_3YnSkMlOSeD-68">
          <mxCell style="html=1;overflow=block;blockSpacing=1;whiteSpace=wrap;;whiteSpace=wrap;fontSize=11.7;fontColor=#333333;align=center;spacing=3.8;strokeOpacity=0;fillOpacity=0;rounded=1;absoluteArcSize=1;arcSize=9;fillColor=#ffffff;strokeWidth=2.3;" parent="1" vertex="1">
            <mxGeometry x="1115" y="385" width="82" height="17" as="geometry" />
          </mxCell>
        </UserObject>
        <UserObject label="Descripción" lucidchartObjectId="s7R3kBrBBPK~" id="VRWW_0TF_3YnSkMlOSeD-69">
          <mxCell style="points=[[0.113,0.537,0]];html=1;overflow=block;blockSpacing=1;whiteSpace=wrap;;whiteSpace=wrap;fontSize=11.7;fontColor=#333333;align=center;spacing=3.8;strokeOpacity=0;fillOpacity=0;rounded=1;absoluteArcSize=1;arcSize=9;fillColor=#ffffff;strokeWidth=2.3;" parent="1" vertex="1">
            <mxGeometry x="1100" y="323" width="105" height="23" as="geometry" />
          </mxCell>
        </UserObject>
        <UserObject label="Nombre" lucidchartObjectId="t7R3z6b9bNlN" id="VRWW_0TF_3YnSkMlOSeD-70">
          <mxCell style="html=1;overflow=block;blockSpacing=1;whiteSpace=wrap;;whiteSpace=wrap;fontSize=11.7;fontColor=#333333;fontStyle=0;align=center;spacing=3.8;strokeOpacity=0;fillOpacity=0;rounded=1;absoluteArcSize=1;arcSize=9;fillColor=#ffffff;strokeWidth=2.3;" parent="1" vertex="1">
            <mxGeometry x="1115" y="299" width="75" height="22" as="geometry" />
          </mxCell>
        </UserObject>
        <UserObject label="Categoría" lucidchartObjectId="gcS3WHN.BvQf" id="VRWW_0TF_3YnSkMlOSeD-71">
          <mxCell style="points=[[0.256,0.482,0]];html=1;overflow=block;blockSpacing=1;whiteSpace=wrap;;whiteSpace=wrap;fontSize=11.7;fontColor=#333333;align=center;spacing=3.8;strokeOpacity=0;fillOpacity=0;rounded=1;absoluteArcSize=1;arcSize=9;fillColor=#ffffff;strokeWidth=2.3;" parent="1" vertex="1">
            <mxGeometry x="1100" y="337" width="105" height="37" as="geometry" />
          </mxCell>
        </UserObject>
        <UserObject label="" lucidchartObjectId="agS3~nGqTm~I" id="VRWW_0TF_3YnSkMlOSeD-72">
          <mxCell style="html=1;jettySize=18;whiteSpace=wrap;fontSize=13;strokeColor=#5E5E5E;strokeWidth=1.5;rounded=0;startArrow=none;;endArrow=none;;exitX=0.998;exitY=0.026;exitPerimeter=0;entryX=0;entryY=0.5;entryPerimeter=0;" parent="1" source="VRWW_0TF_3YnSkMlOSeD-62" target="VRWW_0TF_3YnSkMlOSeD-70" edge="1">
            <mxGeometry width="100" height="100" relative="1" as="geometry">
              <Array as="points" />
            </mxGeometry>
          </mxCell>
        </UserObject>
        <UserObject label="" lucidchartObjectId="ugS31otXK9v-" id="VRWW_0TF_3YnSkMlOSeD-73">
          <mxCell style="html=1;jettySize=18;whiteSpace=wrap;fontSize=13;strokeColor=#5E5E5E;strokeWidth=1.5;rounded=0;startArrow=none;;endArrow=none;;exitX=1;exitY=0.227;exitPerimeter=0;entryX=0.113;entryY=0.537;entryPerimeter=0;" parent="1" source="VRWW_0TF_3YnSkMlOSeD-62" target="VRWW_0TF_3YnSkMlOSeD-69" edge="1">
            <mxGeometry width="100" height="100" relative="1" as="geometry">
              <Array as="points" />
            </mxGeometry>
          </mxCell>
        </UserObject>
        <UserObject label="" lucidchartObjectId="BgS3lfGmBgsZ" id="VRWW_0TF_3YnSkMlOSeD-74">
          <mxCell style="html=1;jettySize=18;whiteSpace=wrap;fontSize=13;strokeColor=#5E5E5E;strokeWidth=1.5;rounded=0;startArrow=none;;endArrow=none;;exitX=1;exitY=0.395;exitPerimeter=0;entryX=0.256;entryY=0.482;entryPerimeter=0;" parent="1" source="VRWW_0TF_3YnSkMlOSeD-62" target="VRWW_0TF_3YnSkMlOSeD-71" edge="1">
            <mxGeometry width="100" height="100" relative="1" as="geometry">
              <Array as="points" />
            </mxGeometry>
          </mxCell>
        </UserObject>
        <UserObject label="" lucidchartObjectId="OgS36MoVAmc0" id="VRWW_0TF_3YnSkMlOSeD-75">
          <mxCell style="html=1;jettySize=18;whiteSpace=wrap;fontSize=13;strokeColor=#5E5E5E;strokeWidth=1.5;rounded=0;startArrow=none;;endArrow=none;;exitX=1;exitY=0.582;exitPerimeter=0;entryX=0.223;entryY=0.449;entryPerimeter=0;" parent="1" source="VRWW_0TF_3YnSkMlOSeD-62" target="VRWW_0TF_3YnSkMlOSeD-66" edge="1">
            <mxGeometry width="100" height="100" relative="1" as="geometry">
              <Array as="points" />
            </mxGeometry>
          </mxCell>
        </UserObject>
        <UserObject label="" lucidchartObjectId="XgS3eBBSyvYL" id="VRWW_0TF_3YnSkMlOSeD-76">
          <mxCell style="html=1;jettySize=18;whiteSpace=wrap;fontSize=13;strokeColor=#5E5E5E;strokeWidth=1.5;rounded=0;startArrow=none;;endArrow=none;;exitX=1;exitY=0.692;exitPerimeter=0;entryX=0;entryY=0.353;entryPerimeter=0;" parent="1" source="VRWW_0TF_3YnSkMlOSeD-62" target="VRWW_0TF_3YnSkMlOSeD-68" edge="1">
            <mxGeometry width="100" height="100" relative="1" as="geometry">
              <Array as="points" />
            </mxGeometry>
          </mxCell>
        </UserObject>
        <UserObject label="" lucidchartObjectId="3gS3T8pVN4DX" id="VRWW_0TF_3YnSkMlOSeD-77">
          <mxCell style="html=1;jettySize=18;whiteSpace=wrap;fontSize=13;strokeColor=#5E5E5E;strokeWidth=1.5;rounded=0;startArrow=none;;endArrow=none;;entryX=0;entryY=0.5;entryPerimeter=0;" parent="1" target="VRWW_0TF_3YnSkMlOSeD-67" edge="1">
            <mxGeometry width="100" height="100" relative="1" as="geometry">
              <Array as="points" />
              <mxPoint x="1030" y="428" as="sourcePoint" />
            </mxGeometry>
          </mxCell>
        </UserObject>
        <UserObject label="" lucidchartObjectId="3iS3DBVo-.tt" id="VRWW_0TF_3YnSkMlOSeD-78">
          <mxCell style="html=1;jettySize=18;whiteSpace=wrap;fontSize=13;strokeColor=#5E5E5E;strokeWidth=1.5;rounded=0;startArrow=none;;endArrow=none;;entryX=1;entryY=0.5;entryPerimeter=0;" parent="1" target="VRWW_0TF_3YnSkMlOSeD-64" edge="1">
            <mxGeometry width="100" height="100" relative="1" as="geometry">
              <Array as="points" />
              <mxPoint x="440" y="33" as="sourcePoint" />
            </mxGeometry>
          </mxCell>
        </UserObject>
        <UserObject label="" lucidchartObjectId="9iS39qGBcTWf" id="VRWW_0TF_3YnSkMlOSeD-79">
          <mxCell style="html=1;jettySize=18;whiteSpace=wrap;fontSize=13;strokeColor=#5E5E5E;strokeWidth=1.5;rounded=0;startArrow=none;;endArrow=none;;exitX=0;exitY=0.763;exitPerimeter=0;entryX=1;entryY=0.528;entryPerimeter=0;" parent="1" source="VRWW_0TF_3YnSkMlOSeD-61" target="VRWW_0TF_3YnSkMlOSeD-65" edge="1">
            <mxGeometry width="100" height="100" relative="1" as="geometry">
              <Array as="points" />
            </mxGeometry>
          </mxCell>
        </UserObject>
        <mxCell id="VRWW_0TF_3YnSkMlOSeD-130" style="edgeStyle=orthogonalEdgeStyle;rounded=0;orthogonalLoop=1;jettySize=auto;html=1;exitX=1;exitY=0.5;exitDx=0;exitDy=0;startArrow=none;startFill=0;endArrow=block;endFill=1;" parent="1" source="VRWW_0TF_3YnSkMlOSeD-80" target="VRWW_0TF_3YnSkMlOSeD-129" edge="1">
          <mxGeometry relative="1" as="geometry" />
        </mxCell>
        <UserObject label="Carrito de compras" lucidchartObjectId="HoV3VUYGfBnm" id="VRWW_0TF_3YnSkMlOSeD-80">
          <mxCell style="html=1;overflow=block;blockSpacing=1;whiteSpace=wrap;;whiteSpace=wrap;fontSize=16.7;fontColor=#000000;align=center;spacing=3.8;strokeOpacity=0;fillOpacity=100;rounded=1;absoluteArcSize=1;arcSize=9;fillColor=#c7e8ac;strokeWidth=2.3;" parent="1" vertex="1">
            <mxGeometry x="440" y="323" width="165" height="90" as="geometry" />
          </mxCell>
        </UserObject>
        <UserObject label="Imágenes" lucidchartObjectId="-kW3zrcVpmZo" id="VRWW_0TF_3YnSkMlOSeD-81">
          <mxCell style="html=1;overflow=block;blockSpacing=1;whiteSpace=wrap;;whiteSpace=wrap;fontSize=11.7;fontColor=#333333;align=center;spacing=3.8;strokeOpacity=0;fillOpacity=0;rounded=1;absoluteArcSize=1;arcSize=9;fillColor=#ffffff;strokeWidth=2.3;" parent="1" vertex="1">
            <mxGeometry x="1119" y="401" width="82" height="17" as="geometry" />
          </mxCell>
        </UserObject>
        <UserObject label="" lucidchartObjectId="ylW3HKlv7jEr" id="VRWW_0TF_3YnSkMlOSeD-82">
          <mxCell style="html=1;jettySize=18;whiteSpace=wrap;fontSize=13;strokeColor=#5E5E5E;strokeWidth=1.5;rounded=0;startArrow=none;;endArrow=none;;exitX=0;exitY=0.5;exitPerimeter=0;entryX=1;entryY=0.851;entryPerimeter=0;" parent="1" source="VRWW_0TF_3YnSkMlOSeD-81" target="VRWW_0TF_3YnSkMlOSeD-62" edge="1">
            <mxGeometry width="100" height="100" relative="1" as="geometry">
              <Array as="points" />
            </mxGeometry>
          </mxCell>
        </UserObject>
        <UserObject label="" lucidchartObjectId="WsW3QUuwKw84" id="VRWW_0TF_3YnSkMlOSeD-84">
          <mxCell style="html=1;jettySize=18;whiteSpace=wrap;fontSize=13;strokeColor=#333333;strokeOpacity=100;strokeWidth=1.5;rounded=0;startArrow=none;;endArrow=block;endFill=1;;exitX=1;exitY=0.5;exitPerimeter=0;entryX=0.018;entryY=0.5;entryPerimeter=0;" parent="1" source="VRWW_0TF_3YnSkMlOSeD-61" target="VRWW_0TF_3YnSkMlOSeD-104" edge="1">
            <mxGeometry width="100" height="100" relative="1" as="geometry">
              <Array as="points" />
            </mxGeometry>
          </mxCell>
        </UserObject>
        <UserObject label="" lucidchartObjectId="0sW3guXp5~d_" id="VRWW_0TF_3YnSkMlOSeD-85">
          <mxCell style="html=1;jettySize=18;whiteSpace=wrap;fontSize=13;strokeColor=#333333;strokeOpacity=100;strokeWidth=1.5;rounded=0;startArrow=none;;endArrow=block;endFill=1;;exitX=0.5;exitY=0.982;exitPerimeter=0;entryX=0.5;entryY=0;entryPerimeter=0;" parent="1" source="VRWW_0TF_3YnSkMlOSeD-63" target="VRWW_0TF_3YnSkMlOSeD-80" edge="1">
            <mxGeometry width="100" height="100" relative="1" as="geometry">
              <Array as="points" />
            </mxGeometry>
          </mxCell>
        </UserObject>
        <UserObject label="Pertenece" lucidchartObjectId="FtW3rKybmeuF" id="VRWW_0TF_3YnSkMlOSeD-86">
          <mxCell style="html=1;overflow=block;blockSpacing=1;whiteSpace=wrap;rhombus;whiteSpace=wrap;fontSize=16.7;fontColor=#000000;align=center;spacing=3.8;strokeOpacity=0;fillOpacity=100;rounded=1;absoluteArcSize=1;arcSize=9;fillColor=#ffdf71;strokeWidth=2.3;" parent="1" vertex="1">
            <mxGeometry x="889.5" y="155.5" width="120" height="90" as="geometry" />
          </mxCell>
        </UserObject>
        <UserObject label="Tiene" lucidchartObjectId="UuW3DIQen~.g" id="VRWW_0TF_3YnSkMlOSeD-87">
          <mxCell style="html=1;overflow=block;blockSpacing=1;whiteSpace=wrap;rhombus;whiteSpace=wrap;fontSize=16.7;fontColor=#000000;align=center;spacing=3.8;strokeOpacity=0;fillOpacity=100;rounded=1;absoluteArcSize=1;arcSize=9;fillColor=#ffdf71;strokeWidth=2.3;" parent="1" vertex="1">
            <mxGeometry x="275" y="326" width="120" height="90" as="geometry" />
          </mxCell>
        </UserObject>
        <UserObject label="" lucidchartObjectId="TvW3dcfrEyD_" id="VRWW_0TF_3YnSkMlOSeD-88">
          <mxCell style="html=1;jettySize=18;whiteSpace=wrap;fontSize=13;strokeColor=#333333;strokeOpacity=100;strokeWidth=1.5;rounded=0;startArrow=none;;endArrow=block;endFill=1;;exitX=0.5;exitY=1;exitPerimeter=0;entryX=0.5;entryY=0.018;entryPerimeter=0;" parent="1" source="VRWW_0TF_3YnSkMlOSeD-61" target="VRWW_0TF_3YnSkMlOSeD-63" edge="1">
            <mxGeometry width="100" height="100" relative="1" as="geometry">
              <Array as="points" />
            </mxGeometry>
          </mxCell>
        </UserObject>
        <UserObject label="" lucidchartObjectId="5vW3nhjf~8cT" id="VRWW_0TF_3YnSkMlOSeD-89">
          <mxCell style="html=1;jettySize=18;whiteSpace=wrap;fontSize=13;strokeColor=#333333;strokeOpacity=100;strokeWidth=1.5;rounded=0;startArrow=block;startFill=1;;endArrow=none;;exitX=0.982;exitY=0.5;exitPerimeter=0;entryX=0;entryY=0.537;entryPerimeter=0;" parent="1" source="VRWW_0TF_3YnSkMlOSeD-87" target="VRWW_0TF_3YnSkMlOSeD-80" edge="1">
            <mxGeometry width="100" height="100" relative="1" as="geometry">
              <Array as="points" />
            </mxGeometry>
          </mxCell>
        </UserObject>
        <UserObject label="" lucidchartObjectId="swW3wiGpFRt5" id="VRWW_0TF_3YnSkMlOSeD-91">
          <mxCell style="html=1;jettySize=18;whiteSpace=wrap;fontSize=13;strokeColor=#333333;strokeOpacity=100;strokeWidth=1.5;rounded=0;startArrow=block;startFill=1;;endArrow=none;;exitX=0.5;exitY=1;exitDx=0;exitDy=0;" parent="1" source="VRWW_0TF_3YnSkMlOSeD-86" target="VRWW_0TF_3YnSkMlOSeD-62" edge="1">
            <mxGeometry width="100" height="100" relative="1" as="geometry">
              <Array as="points" />
            </mxGeometry>
          </mxCell>
        </UserObject>
        <UserObject label="Tiene" lucidchartObjectId="DPW3W3Vpn7df" id="VRWW_0TF_3YnSkMlOSeD-92">
          <mxCell style="html=1;overflow=block;blockSpacing=1;whiteSpace=wrap;rhombus;whiteSpace=wrap;fontSize=16.7;fontColor=#000000;align=center;spacing=3.8;strokeOpacity=0;fillOpacity=100;rounded=1;absoluteArcSize=1;arcSize=9;fillColor=#ffdf71;strokeWidth=2.3;" parent="1" vertex="1">
            <mxGeometry x="1130" y="17" width="120" height="90" as="geometry" />
          </mxCell>
        </UserObject>
        <UserObject label="" lucidchartObjectId="wQW3XrlrY0Dv" id="VRWW_0TF_3YnSkMlOSeD-93">
          <mxCell style="html=1;jettySize=18;whiteSpace=wrap;fontSize=13;strokeColor=#333333;strokeOpacity=100;strokeWidth=1.5;rounded=1;arcSize=12;edgeStyle=orthogonalEdgeStyle;startArrow=block;startFill=1;;endArrow=none;;entryX=0.5;entryY=1;entryDx=0;entryDy=0;" parent="1" target="VRWW_0TF_3YnSkMlOSeD-92" edge="1">
            <mxGeometry width="100" height="100" relative="1" as="geometry">
              <Array as="points" />
              <mxPoint x="1190" y="150" as="sourcePoint" />
              <mxPoint x="1230" y="110" as="targetPoint" />
            </mxGeometry>
          </mxCell>
        </UserObject>
        <UserObject label="Vendedor" lucidchartObjectId="6qM4xLVt9IfQ" id="VRWW_0TF_3YnSkMlOSeD-96">
          <mxCell style="html=1;overflow=block;blockSpacing=1;whiteSpace=wrap;;whiteSpace=wrap;fontSize=16.7;fontColor=#000000;align=center;spacing=3.8;strokeOpacity=0;fillOpacity=100;rounded=1;absoluteArcSize=1;arcSize=9;fillColor=#ffdba9;strokeWidth=2.3;" parent="1" vertex="1">
            <mxGeometry x="867" y="10" width="165" height="105" as="geometry" />
          </mxCell>
        </UserObject>
        <UserObject label="Tarjeta de crédito" lucidchartObjectId="vuM48FyoOs4d" id="VRWW_0TF_3YnSkMlOSeD-97">
          <mxCell style="html=1;overflow=block;blockSpacing=1;whiteSpace=wrap;;whiteSpace=wrap;fontSize=16.7;fontColor=#000000;align=center;spacing=3.8;strokeOpacity=0;fillOpacity=100;rounded=1;absoluteArcSize=1;arcSize=9;fillColor=#b391b5;strokeWidth=2.3;" parent="1" vertex="1">
            <mxGeometry x="65" y="640" width="165" height="105" as="geometry" />
          </mxCell>
        </UserObject>
        <UserObject label="Forma de pago" lucidchartObjectId="vuM4FYpck6RC" id="VRWW_0TF_3YnSkMlOSeD-98">
          <mxCell style="html=1;overflow=block;blockSpacing=1;whiteSpace=wrap;;whiteSpace=wrap;fontSize=16.7;fontColor=#000000;align=center;spacing=3.8;strokeOpacity=0;fillOpacity=100;rounded=1;absoluteArcSize=1;arcSize=9;fillColor=#ff8f80;strokeWidth=2.3;" parent="1" vertex="1">
            <mxGeometry x="260" y="520" width="165" height="105" as="geometry" />
          </mxCell>
        </UserObject>
        <UserObject label="Método de envío" lucidchartObjectId="wuM4G-poAbHd" id="VRWW_0TF_3YnSkMlOSeD-99">
          <mxCell style="html=1;overflow=block;blockSpacing=1;whiteSpace=wrap;;whiteSpace=wrap;fontSize=16.7;fontColor=#000000;align=center;spacing=3.8;strokeOpacity=0;fillOpacity=100;rounded=1;absoluteArcSize=1;arcSize=9;fillColor=#5abaa7;strokeWidth=2.3;" parent="1" vertex="1">
            <mxGeometry x="65" y="311" width="165" height="105" as="geometry" />
          </mxCell>
        </UserObject>
        <UserObject label="Lista de artículos" lucidchartObjectId="WvM4WbPwjmZM" id="VRWW_0TF_3YnSkMlOSeD-100">
          <mxCell style="html=1;overflow=block;blockSpacing=1;whiteSpace=wrap;;whiteSpace=wrap;fontSize=16.7;fontColor=#000000;align=center;spacing=3.8;strokeOpacity=0;fillOpacity=100;rounded=1;absoluteArcSize=1;arcSize=9;fillColor=#ffc374;strokeWidth=2.3;" parent="1" vertex="1">
            <mxGeometry x="1100" y="148" width="165" height="105" as="geometry" />
          </mxCell>
        </UserObject>
        <UserObject label="Categoría" lucidchartObjectId=".vM4qp7iKlHM" id="VRWW_0TF_3YnSkMlOSeD-101">
          <mxCell style="html=1;overflow=block;blockSpacing=1;whiteSpace=wrap;;whiteSpace=wrap;fontSize=16.7;fontColor=#000000;align=center;spacing=3.8;strokeOpacity=0;fillOpacity=100;rounded=1;absoluteArcSize=1;arcSize=9;fillColor=#a3d977;strokeWidth=2.3;" parent="1" vertex="1">
            <mxGeometry x="662" y="148" width="165" height="105" as="geometry" />
          </mxCell>
        </UserObject>
        <UserObject label="Transferencia" lucidchartObjectId="YwM4S4dX5MW0" id="VRWW_0TF_3YnSkMlOSeD-102">
          <mxCell style="html=1;overflow=block;blockSpacing=1;whiteSpace=wrap;;whiteSpace=wrap;fontSize=16.7;fontColor=#000000;align=center;spacing=3.8;strokeOpacity=0;fillOpacity=100;rounded=1;absoluteArcSize=1;arcSize=9;fillColor=#83bbe5;strokeWidth=2.3;" parent="1" vertex="1">
            <mxGeometry x="447" y="640" width="165" height="105" as="geometry" />
          </mxCell>
        </UserObject>
        <UserObject label="" lucidchartObjectId="QOM4b~isPiER" id="VRWW_0TF_3YnSkMlOSeD-103">
          <mxCell style="html=1;jettySize=18;whiteSpace=wrap;fontSize=13;strokeColor=#333333;strokeOpacity=100;strokeWidth=1.5;rounded=0;startArrow=none;;endArrow=block;endFill=1;;entryX=0;entryY=0.5;entryDx=0;entryDy=0;" parent="1" source="VRWW_0TF_3YnSkMlOSeD-96" target="VRWW_0TF_3YnSkMlOSeD-92" edge="1">
            <mxGeometry width="100" height="100" relative="1" as="geometry">
              <Array as="points" />
            </mxGeometry>
          </mxCell>
        </UserObject>
        <UserObject label="Es" lucidchartObjectId="yQM4aEXA.rYS" id="VRWW_0TF_3YnSkMlOSeD-104">
          <mxCell style="html=1;overflow=block;blockSpacing=1;whiteSpace=wrap;rhombus;whiteSpace=wrap;fontSize=16.7;fontColor=#000000;align=center;spacing=3.8;strokeOpacity=0;fillOpacity=100;rounded=1;absoluteArcSize=1;arcSize=9;fillColor=#ffdf71;strokeWidth=2.3;" parent="1" vertex="1">
            <mxGeometry x="662" y="17" width="120" height="90" as="geometry" />
          </mxCell>
        </UserObject>
        <UserObject label="" lucidchartObjectId="pRM4IJCO7Nu9" id="VRWW_0TF_3YnSkMlOSeD-105">
          <mxCell style="html=1;jettySize=18;whiteSpace=wrap;fontSize=13;strokeColor=#333333;strokeOpacity=100;strokeWidth=1.5;rounded=0;startArrow=none;;endArrow=block;endFill=1;;exitX=0.982;exitY=0.5;exitPerimeter=0;entryX=0;entryY=0.5;entryPerimeter=0;" parent="1" source="VRWW_0TF_3YnSkMlOSeD-104" target="VRWW_0TF_3YnSkMlOSeD-96" edge="1">
            <mxGeometry width="100" height="100" relative="1" as="geometry">
              <Array as="points" />
            </mxGeometry>
          </mxCell>
        </UserObject>
        <UserObject label="" lucidchartObjectId="cVM4Mle0go7O" id="VRWW_0TF_3YnSkMlOSeD-106">
          <mxCell style="html=1;jettySize=18;whiteSpace=wrap;fontSize=13;strokeColor=#333333;strokeOpacity=100;strokeWidth=1.5;rounded=0;startArrow=none;;endArrow=classicThin;endFill=1;;startFill=0;" parent="1" target="VRWW_0TF_3YnSkMlOSeD-100" edge="1">
            <mxGeometry width="100" height="100" relative="1" as="geometry">
              <Array as="points" />
              <mxPoint x="1000" y="201" as="sourcePoint" />
            </mxGeometry>
          </mxCell>
        </UserObject>
        <UserObject label="" lucidchartObjectId="AXM4zqLbG2dC" id="VRWW_0TF_3YnSkMlOSeD-107">
          <mxCell style="html=1;jettySize=18;whiteSpace=wrap;fontSize=13;strokeColor=#333333;strokeOpacity=100;strokeWidth=1.5;rounded=0;startArrow=none;;endArrow=block;endFill=1;;exitX=0.018;exitY=0.5;exitPerimeter=0;entryX=1;entryY=0.571;entryPerimeter=0;" parent="1" source="VRWW_0TF_3YnSkMlOSeD-87" target="VRWW_0TF_3YnSkMlOSeD-99" edge="1">
            <mxGeometry width="100" height="100" relative="1" as="geometry">
              <Array as="points" />
            </mxGeometry>
          </mxCell>
        </UserObject>
        <UserObject label="" lucidchartObjectId=".XM4oADbue3T" id="VRWW_0TF_3YnSkMlOSeD-108">
          <mxCell style="html=1;jettySize=18;whiteSpace=wrap;fontSize=13;strokeColor=#333333;strokeOpacity=100;strokeWidth=1.5;rounded=0;startArrow=none;;endArrow=block;endFill=1;;exitX=0.5;exitY=0.982;exitPerimeter=0;entryX=0.455;entryY=0;entryPerimeter=0;" parent="1" source="VRWW_0TF_3YnSkMlOSeD-87" target="VRWW_0TF_3YnSkMlOSeD-98" edge="1">
            <mxGeometry width="100" height="100" relative="1" as="geometry">
              <Array as="points" />
            </mxGeometry>
          </mxCell>
        </UserObject>
        <UserObject label="" lucidchartObjectId="j0M4A6jF-5Xh" id="VRWW_0TF_3YnSkMlOSeD-109">
          <mxCell style="html=1;jettySize=18;whiteSpace=wrap;fontSize=13;strokeColor=#333333;strokeOpacity=100;strokeWidth=1.5;rounded=0;startArrow=none;;endArrow=block;endFill=1;;entryX=1;entryY=0.5;entryDx=0;entryDy=0;exitX=0;exitY=0.5;exitDx=0;exitDy=0;" parent="1" source="VRWW_0TF_3YnSkMlOSeD-86" target="VRWW_0TF_3YnSkMlOSeD-101" edge="1">
            <mxGeometry width="100" height="100" relative="1" as="geometry">
              <Array as="points" />
              <mxPoint x="900" y="210" as="sourcePoint" />
            </mxGeometry>
          </mxCell>
        </UserObject>
        <UserObject label="Tiene" lucidchartObjectId="G1M4w4qSJa0c" id="VRWW_0TF_3YnSkMlOSeD-110">
          <mxCell style="html=1;overflow=block;blockSpacing=1;whiteSpace=wrap;rhombus;whiteSpace=wrap;fontSize=16.7;fontColor=#000000;align=center;spacing=3.8;strokeOpacity=0;fillOpacity=100;rounded=1;absoluteArcSize=1;arcSize=9;fillColor=#ffdf71;strokeWidth=2.3;" parent="1" vertex="1">
            <mxGeometry x="283" y="648" width="120" height="90" as="geometry" />
          </mxCell>
        </UserObject>
        <UserObject label="" lucidchartObjectId=".1M4gGbuYMrg" id="VRWW_0TF_3YnSkMlOSeD-111">
          <mxCell style="html=1;jettySize=18;whiteSpace=wrap;fontSize=13;strokeColor=#333333;strokeOpacity=100;strokeWidth=1.5;rounded=0;startArrow=none;;endArrow=block;endFill=1;;exitX=0.5;exitY=1;exitPerimeter=0;entryX=0.5;entryY=0.018;entryPerimeter=0;" parent="1" source="VRWW_0TF_3YnSkMlOSeD-98" target="VRWW_0TF_3YnSkMlOSeD-110" edge="1">
            <mxGeometry width="100" height="100" relative="1" as="geometry">
              <Array as="points" />
            </mxGeometry>
          </mxCell>
        </UserObject>
        <UserObject label="" lucidchartObjectId="p2M4J05XQyJd" id="VRWW_0TF_3YnSkMlOSeD-112">
          <mxCell style="html=1;jettySize=18;whiteSpace=wrap;fontSize=13;strokeColor=#333333;strokeOpacity=100;strokeWidth=1.5;rounded=0;startArrow=none;;endArrow=block;endFill=1;;exitX=0.018;exitY=0.5;exitPerimeter=0;entryX=1;entryY=0.5;entryPerimeter=0;" parent="1" source="VRWW_0TF_3YnSkMlOSeD-110" target="VRWW_0TF_3YnSkMlOSeD-97" edge="1">
            <mxGeometry width="100" height="100" relative="1" as="geometry">
              <Array as="points" />
            </mxGeometry>
          </mxCell>
        </UserObject>
        <UserObject label="" lucidchartObjectId="H2M4KUmOb0ju" id="VRWW_0TF_3YnSkMlOSeD-113">
          <mxCell style="html=1;jettySize=18;whiteSpace=wrap;fontSize=13;strokeColor=#333333;strokeOpacity=100;strokeWidth=1.5;rounded=0;startArrow=none;;endArrow=block;endFill=1;;exitX=0.982;exitY=0.5;exitPerimeter=0;entryX=0;entryY=0.5;entryPerimeter=0;" parent="1" source="VRWW_0TF_3YnSkMlOSeD-110" target="VRWW_0TF_3YnSkMlOSeD-102" edge="1">
            <mxGeometry width="100" height="100" relative="1" as="geometry">
              <Array as="points" />
            </mxGeometry>
          </mxCell>
        </UserObject>
        <UserObject label="Tipo de envío" lucidchartObjectId="PfN4OGxCoEJX" id="VRWW_0TF_3YnSkMlOSeD-114">
          <mxCell style="html=1;overflow=block;blockSpacing=1;whiteSpace=wrap;;whiteSpace=wrap;fontSize=11.7;fontColor=#333333;align=center;spacing=3.8;strokeOpacity=0;fillOpacity=0;rounded=1;absoluteArcSize=1;arcSize=9;fillColor=#ffffff;strokeWidth=2.3;" parent="1" vertex="1">
            <mxGeometry x="58" y="235" width="60" height="45" as="geometry" />
          </mxCell>
        </UserObject>
        <UserObject label="Costo de envío" lucidchartObjectId="4fN4K5PFpD6C" id="VRWW_0TF_3YnSkMlOSeD-115">
          <mxCell style="html=1;overflow=block;blockSpacing=1;whiteSpace=wrap;;whiteSpace=wrap;fontSize=11.7;fontColor=#333333;align=center;spacing=3.8;strokeOpacity=0;fillOpacity=0;rounded=1;absoluteArcSize=1;arcSize=9;fillColor=#ffffff;strokeWidth=2.3;" parent="1" vertex="1">
            <mxGeometry x="118" y="235" width="60" height="45" as="geometry" />
          </mxCell>
        </UserObject>
        <UserObject label="Dirección" lucidchartObjectId="xgN4dRve7QIO" id="VRWW_0TF_3YnSkMlOSeD-116">
          <mxCell style="html=1;overflow=block;blockSpacing=1;whiteSpace=wrap;;whiteSpace=wrap;fontSize=11.7;fontColor=#333333;align=center;spacing=3.8;strokeOpacity=0;fillOpacity=0;rounded=1;absoluteArcSize=1;arcSize=9;fillColor=#ffffff;strokeWidth=2.3;" parent="1" vertex="1">
            <mxGeometry x="178" y="235" width="60" height="45" as="geometry" />
          </mxCell>
        </UserObject>
        <UserObject label="" lucidchartObjectId="1gN4pZkRLqTf" id="VRWW_0TF_3YnSkMlOSeD-117">
          <mxCell style="html=1;jettySize=18;whiteSpace=wrap;fontSize=13;strokeColor=#5e5e5e;strokeOpacity=100;strokeWidth=1.5;rounded=0;startArrow=none;;endArrow=none;;exitX=0.5;exitY=1;exitPerimeter=0;entryX=0.136;entryY=0;entryPerimeter=0;" parent="1" source="VRWW_0TF_3YnSkMlOSeD-114" target="VRWW_0TF_3YnSkMlOSeD-99" edge="1">
            <mxGeometry width="100" height="100" relative="1" as="geometry">
              <Array as="points" />
            </mxGeometry>
          </mxCell>
        </UserObject>
        <UserObject label="" lucidchartObjectId="3gN4w.h9avst" id="VRWW_0TF_3YnSkMlOSeD-118">
          <mxCell style="html=1;jettySize=18;whiteSpace=wrap;fontSize=13;strokeColor=#5e5e5e;strokeOpacity=100;strokeWidth=1.5;rounded=0;startArrow=none;;endArrow=none;;exitX=0.5;exitY=1;exitPerimeter=0;entryX=0.5;entryY=0;entryPerimeter=0;" parent="1" source="VRWW_0TF_3YnSkMlOSeD-115" target="VRWW_0TF_3YnSkMlOSeD-99" edge="1">
            <mxGeometry width="100" height="100" relative="1" as="geometry">
              <Array as="points" />
            </mxGeometry>
          </mxCell>
        </UserObject>
        <UserObject label="" lucidchartObjectId="ghN4CaG5a5zd" id="VRWW_0TF_3YnSkMlOSeD-119">
          <mxCell style="html=1;jettySize=18;whiteSpace=wrap;fontSize=13;strokeColor=#5e5e5e;strokeOpacity=100;strokeWidth=1.5;rounded=0;startArrow=none;;endArrow=none;;exitX=0.5;exitY=1;exitPerimeter=0;entryX=0.864;entryY=0;entryPerimeter=0;" parent="1" source="VRWW_0TF_3YnSkMlOSeD-116" target="VRWW_0TF_3YnSkMlOSeD-99" edge="1">
            <mxGeometry width="100" height="100" relative="1" as="geometry">
              <Array as="points" />
            </mxGeometry>
          </mxCell>
        </UserObject>
        <UserObject label="Nombre" lucidchartObjectId="YhN4k3a8AUyT" id="VRWW_0TF_3YnSkMlOSeD-120">
          <mxCell style="html=1;overflow=block;blockSpacing=1;whiteSpace=wrap;;whiteSpace=wrap;fontSize=11.7;fontColor=#333333;align=center;spacing=3.8;strokeOpacity=0;fillOpacity=0;rounded=1;absoluteArcSize=1;arcSize=9;fillColor=#ffffff;strokeWidth=2.3;" parent="1" vertex="1">
            <mxGeometry x="850" y="130" width="60" height="45" as="geometry" />
          </mxCell>
        </UserObject>
        <UserObject label="" lucidchartObjectId="3gS3T8pVN4DX" id="VRWW_0TF_3YnSkMlOSeD-122">
          <mxCell style="html=1;jettySize=18;whiteSpace=wrap;fontSize=13;strokeColor=#5E5E5E;strokeWidth=1.5;rounded=0;startArrow=none;;endArrow=none;;entryX=0;entryY=0.5;entryDx=0;entryDy=0;" parent="1" target="VRWW_0TF_3YnSkMlOSeD-120" edge="1">
            <mxGeometry width="100" height="100" relative="1" as="geometry">
              <Array as="points" />
              <mxPoint x="820" y="153" as="sourcePoint" />
              <mxPoint x="881.61" y="152" as="targetPoint" />
            </mxGeometry>
          </mxCell>
        </UserObject>
        <UserObject label="1" lucidchartObjectId="xgN4dRve7QIO" id="VRWW_0TF_3YnSkMlOSeD-124">
          <mxCell style="html=1;overflow=block;blockSpacing=1;whiteSpace=wrap;;whiteSpace=wrap;fontSize=11.7;fontColor=#333333;align=center;spacing=3.8;strokeOpacity=0;fillOpacity=0;rounded=1;absoluteArcSize=1;arcSize=9;fillColor=#ffffff;strokeWidth=2.3;fontStyle=1" parent="1" vertex="1">
            <mxGeometry x="600" y="337" width="50" height="29" as="geometry" />
          </mxCell>
        </UserObject>
        <UserObject label="*" lucidchartObjectId="xgN4dRve7QIO" id="VRWW_0TF_3YnSkMlOSeD-125">
          <mxCell style="html=1;overflow=block;blockSpacing=1;whiteSpace=wrap;;whiteSpace=wrap;fontSize=21;fontColor=#333333;align=center;spacing=3.8;strokeOpacity=0;fillOpacity=0;rounded=1;absoluteArcSize=1;arcSize=9;fillColor=#ffffff;strokeWidth=2.3;fontStyle=1" parent="1" vertex="1">
            <mxGeometry x="777" y="341" width="50" height="29" as="geometry" />
          </mxCell>
        </UserObject>
        <mxCell id="VRWW_0TF_3YnSkMlOSeD-131" style="edgeStyle=orthogonalEdgeStyle;rounded=0;orthogonalLoop=1;jettySize=auto;html=1;exitX=1;exitY=0.5;exitDx=0;exitDy=0;entryX=0;entryY=0.5;entryDx=0;entryDy=0;startArrow=none;startFill=0;endArrow=block;endFill=1;" parent="1" source="VRWW_0TF_3YnSkMlOSeD-129" target="VRWW_0TF_3YnSkMlOSeD-62" edge="1">
          <mxGeometry relative="1" as="geometry" />
        </mxCell>
        <UserObject label="Tiene" lucidchartObjectId="FtW3rKybmeuF" id="VRWW_0TF_3YnSkMlOSeD-129">
          <mxCell style="html=1;overflow=block;blockSpacing=1;whiteSpace=wrap;rhombus;whiteSpace=wrap;fontSize=16.7;fontColor=#000000;align=center;spacing=3.8;strokeOpacity=0;fillOpacity=100;rounded=1;absoluteArcSize=1;arcSize=9;fillColor=#ffdf71;strokeWidth=2.3;" parent="1" vertex="1">
            <mxGeometry x="670" y="323" width="120" height="90" as="geometry" />
          </mxCell>
        </UserObject>
        <UserObject label="*" lucidchartObjectId="xgN4dRve7QIO" id="VRWW_0TF_3YnSkMlOSeD-133">
          <mxCell style="html=1;overflow=block;blockSpacing=1;whiteSpace=wrap;;whiteSpace=wrap;fontSize=21;fontColor=#333333;align=center;spacing=3.8;strokeOpacity=0;fillOpacity=0;rounded=1;absoluteArcSize=1;arcSize=9;fillColor=#ffffff;strokeWidth=2.3;fontStyle=1" parent="1" vertex="1">
            <mxGeometry x="940" y="282" width="50" height="29" as="geometry" />
          </mxCell>
        </UserObject>
        <UserObject label="1" lucidchartObjectId="xgN4dRve7QIO" id="VRWW_0TF_3YnSkMlOSeD-134">
          <mxCell style="html=1;overflow=block;blockSpacing=1;whiteSpace=wrap;;whiteSpace=wrap;fontSize=11.7;fontColor=#333333;align=center;spacing=3.8;strokeOpacity=0;fillOpacity=0;rounded=1;absoluteArcSize=1;arcSize=9;fillColor=#ffffff;strokeWidth=2.3;fontStyle=1" parent="1" vertex="1">
            <mxGeometry x="839.5" y="175" width="50" height="29" as="geometry" />
          </mxCell>
        </UserObject>
      </root>
    </mxGraphModel>
  </diagram>
</mxfile>
